<svg xmlns="http://www.w3.org/2000/svg" viewBox="0 0 44 44" fill="none"><rect width="44" height="44" rx="9" fill="#020C0E"/><defs><linearGradient id="lgfav" x1="0" y1="0" x2="1" y2="1"><stop offset="0%" stop-color="#2A9DF4"/><stop offset="100%" stop-color="#0071C1"/></linearGradient><radialGradient id="lueurfav" cx="50%" cy="42%" r="52%"><stop offset="0%" stop-color="#7FCBFF" stop-opacity=".55"/><stop offset="100%" stop-color="#7FCBFF" stop-opacity="0"/></radialGradient></defs><circle cx="22" cy="19" r="19" fill="url(#lueurfav)"/><path d="M22 4c-6.6 0-12 5.2-12 11.7 0 4.3 2.3 7.4 4.4 9.6 1 1.1 1.6 2 1.6 3.2v1h12v-1c0-1.2.6-2.1 1.6-3.2 2.1-2.2 4.4-5.3 4.4-9.6C34 9.2 28.6 4 22 4Z" stroke="url(#lgfav)" stroke-width="2.4" fill="rgba(42,157,244,.12)"/><path d="M16.5 32.5h11M17.5 36h9M19 39.5h6" stroke="url(#lgfav)" stroke-width="2.4" stroke-linecap="round"/><path d="M23.6 9.5 17.8 18.6h4.3l-1.5 7.4 6-9.4h-4.2l1.2-7.1Z" fill="#7FCBFF"/></svg>